<svg width="243" height="243" viewBox="0 0 243 243" fill="none" xmlns="http://www.w3.org/2000/svg">
<g clip-path="url(#clip0_2145_11)">
<path d="M121.5 243C188.603 243 243 188.603 243 121.5C243 54.3974 188.603 0 121.5 0C54.3974 0 0 54.3974 0 121.5C0 188.603 54.3974 243 121.5 243Z" fill="#FFE14D"/>
<path d="M243 121.5C243 54.5046 188.495 0 121.5 0V243C188.495 243 243 188.495 243 121.5Z" fill="#FFBB33"/>
<path d="M121.5 214.049C70.47 214.049 28.9512 172.53 28.9512 121.5C28.9512 70.47 70.47 28.9512 121.5 28.9512C172.53 28.9512 214.049 70.47 214.049 121.5C214.049 172.53 172.53 214.049 121.5 214.049Z" fill="#FFBB33"/>
<path d="M214.049 121.5C214.049 70.47 172.53 28.9512 121.5 28.9512V214.049C172.53 214.049 214.049 172.53 214.049 121.5Z" fill="#E68A2E"/>
<path d="M128.619 114.888V86.7405C136.807 88.7495 142.857 94.0177 142.857 100.073C142.857 104.008 146.042 107.192 149.977 107.192C153.912 107.192 157.096 104.008 157.096 100.073C157.096 86.3181 144.85 74.8174 128.619 72.1729V64.4775C128.619 60.5426 125.435 57.3584 121.5 57.3584C117.565 57.3584 114.381 60.5426 114.381 64.4775V72.1729C98.1497 74.8174 85.9043 86.3181 85.9043 100.073C85.9043 113.828 98.1497 125.329 114.381 127.974V156.121C106.193 154.112 100.143 148.844 100.143 142.788C100.143 138.853 96.9584 135.669 93.0234 135.669C89.0885 135.669 85.9043 138.853 85.9043 142.788C85.9043 156.543 98.1497 168.044 114.381 170.689V178.453C114.381 182.388 117.565 185.572 121.5 185.572C125.435 185.572 128.619 182.388 128.619 178.453V170.689C144.85 168.044 157.096 156.543 157.096 142.788C157.096 129.033 144.85 117.532 128.619 114.888ZM100.143 100.073C100.143 94.0177 106.193 88.7495 114.381 86.7405V113.406C106.193 111.396 100.143 106.128 100.143 100.073ZM128.619 156.121V129.455C136.807 131.464 142.857 136.733 142.857 142.788C142.857 148.844 136.807 154.111 128.619 156.121Z" fill="#FFE14D"/>
<path d="M128.619 178.453V170.689C144.85 168.044 157.096 156.543 157.096 142.788C157.096 129.033 144.85 117.532 128.619 114.888V86.7405C136.807 88.7495 142.857 94.0177 142.857 100.073C142.857 104.008 146.042 107.192 149.977 107.192C153.912 107.192 157.096 104.008 157.096 100.073C157.096 86.3181 144.85 74.8174 128.619 72.1729V64.4775C128.619 60.5426 125.435 57.3584 121.5 57.3584V185.572C125.435 185.572 128.619 182.388 128.619 178.453ZM128.619 129.455C136.807 131.464 142.857 136.732 142.857 142.788C142.857 148.843 136.807 154.111 128.619 156.12V129.455Z" fill="#FFBB33"/>
</g>
<defs>
<clipPath id="clip0_2145_11">
<rect width="243" height="243" fill="white"/>
</clipPath>
</defs>
</svg>
