<svg width="38" height="43" viewBox="0 0 38 43" fill="none" xmlns="http://www.w3.org/2000/svg">
<path opacity="0.7" d="M18.9999 23.4565C25.5583 23.4565 30.8749 18.2056 30.8749 11.7282C30.8749 5.25091 25.5583 0 18.9999 0C12.4415 0 7.12488 5.25091 7.12488 11.7282C7.12488 18.2056 12.4415 23.4565 18.9999 23.4565Z" fill="white"/>
<path d="M37.9788 35.2037C37.9896 35.0367 37.9896 34.8694 37.9788 34.7024C37.9319 34.0855 37.7568 33.483 37.4635 32.9287C36.3091 30.673 33.0727 29.6512 30.3723 29.0729C28.4457 28.6718 26.4881 28.4139 24.518 28.3017L22.4566 28.1475H21.5289H20.3746H17.6123H16.4579H15.5303L13.4689 28.3017C11.4988 28.4139 9.54121 28.6718 7.61457 29.0729C4.91414 29.5741 1.67776 30.6152 0.523382 32.9287C0.230072 33.483 0.0550298 34.0855 0.00803429 34.7024C-0.0026781 34.8694 -0.0026781 35.0367 0.00803429 35.2037C-0.00185626 35.3706 -0.00185626 35.538 0.00803429 35.7049C0.0641043 36.3166 0.246098 36.9123 0.543996 37.4594C1.69837 39.715 4.93476 40.7368 7.63518 41.3152C9.56541 41.6975 11.5215 41.9552 13.4895 42.0864L15.5509 42.2213H16.0457H16.4785H21.5496H21.9825H22.4772L24.5386 42.0864C26.5066 41.9552 28.4627 41.6975 30.3929 41.3152C33.0933 40.7947 36.3297 39.7729 37.4841 37.4594C37.7681 36.895 37.9426 36.2879 37.9995 35.6664C38.0021 35.5119 37.9952 35.3574 37.9788 35.2037Z" fill="white"/>
</svg>
