<svg width="20" height="21" viewBox="0 0 20 21" fill="none" xmlns="http://www.w3.org/2000/svg">
<path opacity="0.5" d="M7.2898 3.95831H6.38642C4.25715 3.95831 3.19206 3.95831 2.53078 4.61959C1.86951 5.28086 1.86951 6.34595 1.86951 8.47522V12.9921C1.86951 15.1214 1.86951 16.1856 2.53078 16.8478C3.19206 17.509 4.25715 17.509 6.38642 17.509H7.2898" stroke="#678E85" stroke-width="2"/>
<path d="M7.28979 5.74346C7.28979 3.672 7.28979 2.63582 7.92849 2.0694C8.56718 1.50298 9.54373 1.67282 11.4968 2.01339L13.6017 2.38107C15.7644 2.75778 16.8458 2.94659 17.4881 3.73976C18.1304 4.53383 18.1304 5.68112 18.1304 7.97662V13.4918C18.1304 15.7864 18.1304 16.9337 17.489 17.7277C16.8458 18.5209 15.7635 18.7097 13.6008 19.0873L11.4977 19.4541C9.54464 19.7947 8.56808 19.9645 7.92939 19.3981C7.2898 18.8317 7.28979 17.7955 7.28979 15.724V5.74346Z" stroke="white" stroke-width="2"/>
<path opacity="0.5" d="M10 9.83038V11.6371" stroke="white" stroke-width="2" stroke-linecap="round"/>
</svg>
