<svg width="22" height="22" viewBox="0 0 22 22" fill="none" xmlns="http://www.w3.org/2000/svg">
<path d="M11.2313 10.1207C11.5733 9.50691 11.7443 9.20001 11.9999 9.20001C12.2555 9.20001 12.4265 9.50601 12.7685 10.1207L12.8567 10.2791C12.9539 10.4537 13.0025 10.5401 13.0781 10.5977C13.1546 10.6553 13.2491 10.6769 13.4381 10.7192L13.6091 10.7588C14.2733 10.9091 14.6054 10.9838 14.6846 11.2376C14.7638 11.4923 14.537 11.7569 14.0843 12.2861L13.9673 12.4229C13.8386 12.5732 13.7738 12.6479 13.745 12.7415C13.7162 12.8351 13.7261 12.935 13.745 13.1357L13.763 13.3184C13.8314 14.0249 13.8656 14.3786 13.6595 14.5352C13.4525 14.6918 13.1411 14.5487 12.5192 14.2625L12.359 14.1887C12.1817 14.1077 12.0935 14.0672 11.9999 14.0672C11.9063 14.0672 11.8181 14.1077 11.6408 14.1887L11.4806 14.2625C10.8587 14.5496 10.5473 14.6918 10.3403 14.5352C10.1333 14.3786 10.1684 14.0249 10.2368 13.3184L10.2548 13.1357C10.2737 12.935 10.2836 12.8351 10.2548 12.7415C10.226 12.6488 10.1612 12.5732 10.0325 12.4229L9.91553 12.2861C9.46283 11.7569 9.23603 11.4923 9.31523 11.2376C9.39443 10.9838 9.72653 10.9091 10.3907 10.7588L10.5617 10.7192C10.7507 10.6769 10.8452 10.6562 10.9217 10.5977C10.9973 10.5401 11.0459 10.4537 11.1431 10.2791L11.2313 10.1207Z" stroke="white" stroke-opacity="0.7"/>
<path d="M21 10.8182C21 8.4494 21 7.2641 20.307 6.4946C20.2434 6.42357 20.1761 6.35597 20.1054 6.2921C19.3359 5.6 18.1506 5.6 15.7818 5.6H15.4452C14.4075 5.6 13.8882 5.6 13.404 5.4623C13.1383 5.38634 12.8822 5.28004 12.6408 5.1455C12.2016 4.9016 11.8344 4.5335 11.1 3.8L10.605 3.305C10.3584 3.0584 10.236 2.936 10.1064 2.828C9.549 2.36598 8.86524 2.08275 8.1444 2.0153C7.977 2 7.8024 2 7.455 2C6.6603 2 6.2634 2 5.9322 2.063C5.22106 2.1973 4.5669 2.54282 4.05508 3.05449C3.54325 3.56615 3.19752 4.2202 3.063 4.9313C3 5.2634 3 5.6612 3 6.455M20.9919 14.6C20.9595 16.832 20.7939 18.0965 19.9452 18.9452C18.8913 20 17.1939 20 13.8 20H10.2C6.8061 20 5.1087 20 4.0548 18.9452C3 17.8913 3 16.1939 3 12.8V10.1" stroke="white" stroke-width="2" stroke-linecap="round"/>
</svg>
